<?xml version="1.0" standalone="no"?>
<!DOCTYPE svg PUBLIC "-//W3C//DTD SVG 20010904//EN"
 "http://www.w3.org/TR/2001/REC-SVG-20010904/DTD/svg10.dtd">
<svg version="1.0" xmlns="http://www.w3.org/2000/svg"
 width="1920.000000pt" height="288.000000pt" viewBox="0 0 1920.000000 288.000000"
 preserveAspectRatio="xMidYMid meet">

<g transform="translate(0.000000,288.000000) scale(0.100000,-0.100000)"
fill="#000000" stroke="none">
<path d="M8151 1924 c-13 -6 -34 -30 -47 -53 -21 -38 -24 -60 -33 -254 -6
-116 -10 -228 -10 -247 l2 -35 6 40 c5 30 9 8 15 -88 10 -146 26 -166 39 -46
20 200 29 275 36 286 4 9 22 -14 50 -62 23 -41 47 -73 52 -70 5 3 17 -9 28
-27 11 -18 29 -42 41 -54 11 -11 24 -34 29 -50 8 -29 37 -46 39 -22 0 7 3 47
7 88 6 83 27 263 51 444 12 92 13 120 4 126 -17 10 -68 -17 -82 -43 -6 -12
-15 -25 -20 -28 -14 -9 -24 -379 -10 -379 7 0 12 -15 12 -35 0 -19 -5 -35 -10
-35 -15 0 -68 125 -131 309 -31 89 -33 108 -23 187 7 57 -4 69 -45 48z m26
-36 c-3 -8 -6 -5 -6 6 -1 11 2 17 5 13 3 -3 4 -12 1 -19z"/>
<path d="M11530 1930 c0 -5 -8 -10 -19 -10 -12 0 -23 -12 -32 -32 -7 -18 -17
-36 -23 -40 -6 -4 -12 -56 -14 -115 -3 -114 -9 -159 -19 -149 -3 3 -12 1 -19
-5 -8 -6 -20 -9 -28 -6 -11 4 -13 36 -11 166 l2 161 -30 -6 c-34 -5 -57 -21
-57 -36 0 -5 -20 -35 -45 -67 -25 -31 -45 -61 -45 -67 0 -10 -40 -71 -76 -117
-14 -17 -31 -27 -48 -27 -29 0 -37 -20 -8 -21 14 0 14 -2 -3 -9 -11 -5 -14 -9
-8 -9 16 -1 -64 -159 -89 -179 -28 -21 -21 -39 18 -52 30 -10 38 -9 53 4 10 9
22 16 27 16 5 0 25 30 44 68 l35 67 65 7 c36 4 71 6 78 3 6 -2 13 -19 13 -37
l1 -33 8 30 c7 27 8 25 9 -17 0 -26 6 -50 11 -53 6 -3 10 -18 10 -33 0 -39 11
-72 22 -72 6 0 8 11 6 25 -3 14 -1 25 4 25 6 0 7 36 3 95 -6 77 -5 95 6 95 11
0 11 3 -1 11 -12 8 -9 10 13 6 22 -3 25 -2 16 9 -9 11 -7 14 10 14 20 0 21 -5
22 -82 0 -59 3 -77 10 -63 6 14 8 3 7 -40 -1 -33 2 -68 7 -78 4 -10 5 -35 1
-56 -4 -27 -2 -42 8 -50 11 -9 15 2 24 61 6 40 14 111 17 158 4 47 10 103 14
125 l7 40 42 -80 c41 -77 100 -165 72 -107 -22 44 -3 33 21 -13 13 -25 29 -45
35 -45 12 0 34 -42 34 -65 0 -8 7 -15 15 -15 8 0 15 4 15 9 0 5 8 12 18 14 16
4 16 5 0 6 -14 1 -17 7 -12 34 3 17 5 51 4 75 0 23 8 100 19 170 11 70 25 165
30 212 6 47 14 99 17 116 5 24 2 33 -12 38 -11 4 -20 2 -22 -3 -2 -6 -12 -11
-23 -11 -12 0 -24 -11 -32 -27 -6 -16 -17 -33 -23 -40 -7 -7 -13 -57 -14 -125
-1 -62 -5 -154 -8 -205 l-7 -92 -32 77 c-102 247 -114 293 -101 382 8 49 7 64
-4 71 -18 12 -28 11 -28 -1z m-272 -222 c1 -7 5 -41 8 -75 l6 -63 -29 0 c-42
0 -45 7 -23 51 24 45 26 61 5 33 -21 -28 -18 -4 5 34 22 35 26 38 28 20z m459
-310 c-2 -13 -4 -3 -4 22 0 25 2 35 4 23 2 -13 2 -33 0 -45z m-240 -175 c-3
-10 -5 -2 -5 17 0 19 2 27 5 18 2 -10 2 -26 0 -35z"/>
<path d="M13341 1924 c-13 -6 -34 -30 -46 -53 -22 -37 -25 -60 -36 -280 -6
-131 -9 -245 -6 -252 3 -8 6 4 8 26 2 32 3 28 9 -25 4 -36 8 -93 9 -127 1 -49
4 -61 15 -57 15 6 29 87 31 184 2 75 16 190 25 195 4 2 28 -34 54 -80 25 -46
51 -87 57 -91 8 -4 7 0 0 15 -19 34 -5 24 19 -14 12 -19 18 -40 14 -47 -4 -7
-4 -10 1 -6 15 14 45 -13 55 -52 12 -45 18 -48 43 -20 9 11 13 20 8 20 -16 0
-2 155 45 509 9 74 12 127 7 132 -13 13 -70 -17 -85 -44 -6 -12 -15 -25 -20
-28 -4 -3 -11 -98 -15 -212 -3 -114 -9 -207 -12 -207 -8 0 -115 269 -131 329
-7 27 -9 71 -5 116 8 79 0 92 -44 69z m206 -521 c-3 -10 -5 -2 -5 17 0 19 2
27 5 18 2 -10 2 -26 0 -35z"/>
<path d="M14236 1925 c-3 -8 -12 -12 -19 -9 -9 3 -19 -7 -28 -28 -7 -18 -17
-36 -22 -39 -6 -5 -19 -128 -27 -259 0 -3 -8 -6 -17 -6 -10 -1 -25 -3 -33 -5
-13 -3 -15 19 -15 156 0 145 -2 160 -18 159 -48 -2 -56 -6 -62 -26 -4 -13 -21
-37 -37 -54 -16 -18 -39 -51 -51 -76 -12 -24 -40 -69 -62 -100 -33 -47 -45
-57 -69 -58 -26 0 -28 -3 -23 -28 4 -21 -4 -47 -33 -99 -21 -39 -35 -75 -32
-79 4 -4 2 -4 -5 0 -17 10 -48 -50 -31 -60 23 -14 53 -13 90 4 30 14 43 30 68
83 l31 66 72 6 c80 7 86 3 88 -53 l2 -35 7 35 c7 35 7 35 9 -11 0 -25 5 -49
10 -55 5 -5 11 -27 13 -48 2 -22 8 -41 14 -43 17 -6 25 68 18 157 -6 65 -4 80
7 80 11 0 11 2 -1 11 -12 8 -9 10 12 6 19 -3 25 0 21 10 -3 7 2 13 11 13 13 0
16 -14 17 -87 0 -59 3 -81 9 -68 6 15 9 8 9 -27 1 -27 -3 -48 -9 -48 -14 0
-12 -19 4 -35 9 -9 12 -32 10 -69 -2 -42 0 -54 10 -50 16 6 33 100 41 224 4
52 10 112 13 134 l7 38 47 -83 c26 -46 54 -93 63 -104 16 -19 16 -19 5 5 l-11
25 20 -24 c22 -24 28 -47 11 -36 -5 3 -10 4 -10 2 0 -3 16 -14 35 -25 22 -14
37 -32 42 -52 5 -17 12 -31 16 -31 4 1 15 1 25 1 9 0 13 4 7 8 -12 8 -20 46
-8 39 4 -3 7 25 6 61 -1 37 6 126 17 197 10 72 23 168 29 215 6 47 13 99 17
116 5 26 2 32 -15 37 -12 3 -21 1 -21 -4 0 -5 -9 -9 -20 -9 -13 0 -25 -11 -33
-27 -6 -16 -16 -31 -21 -34 -8 -6 -24 -238 -26 -379 l-1 -55 -30 70 c-38 86
-52 125 -90 240 -29 85 -30 93 -18 153 10 53 9 66 -2 73 -20 12 -26 11 -33 -6z
m-269 -217 c1 -7 5 -41 9 -75 6 -59 6 -63 -14 -63 -49 0 -52 8 -26 66 25 57
25 73 0 27 -8 -16 -15 -23 -16 -18 0 10 37 75 43 75 2 0 4 -6 4 -12z m460
-310 c-2 -13 -4 -3 -4 22 0 25 2 35 4 23 2 -13 2 -33 0 -45z"/>
<path d="M3434 1906 c-3 -9 0 -24 7 -33 11 -13 14 -63 12 -232 -1 -132 2 -204
7 -186 8 27 8 25 7 -17 0 -26 2 -50 6 -54 4 -4 7 -29 7 -56 0 -28 4 -47 9 -43
5 3 16 -4 25 -16 15 -22 17 -22 103 -10 89 13 116 20 72 22 -19 0 -16 3 15 15
22 8 42 12 44 9 3 -3 -1 -5 -8 -5 -7 0 -11 -2 -8 -5 3 -3 17 -1 32 5 15 5 25
6 22 1 -11 -17 77 -38 149 -35 89 5 151 35 182 90 50 88 12 165 -107 215 -65
27 -139 75 -147 95 -8 21 16 72 45 94 14 11 40 20 59 20 27 0 34 3 29 15 -7
19 -3 19 44 -5 l40 -20 0 20 c0 11 -4 20 -8 20 -5 0 -19 10 -32 22 -19 18 -34
22 -81 21 -65 -2 -102 -18 -140 -60 -48 -52 -59 -76 -59 -127 0 -46 3 -53 50
-98 46 -45 67 -57 178 -103 46 -20 64 -54 41 -81 -17 -21 -63 -44 -91 -45 -22
-1 -22 -1 2 -8 18 -5 5 -9 -49 -14 -55 -4 -83 -2 -110 9 -20 9 -54 17 -76 20
-22 2 -71 7 -110 11 l-70 8 1 59 c1 71 11 81 97 91 46 5 57 9 42 15 -19 8 -19
9 3 9 12 1 22 6 22 11 0 6 7 10 15 10 8 0 15 7 15 15 0 8 -6 15 -12 15 -9 0
-8 4 2 10 18 11 3 12 -25 1 -12 -5 -36 -3 -58 5 -20 7 -44 11 -52 8 -12 -5
-15 4 -15 44 0 27 3 70 6 95 7 46 7 46 53 52 97 14 211 55 211 76 0 5 -15 13
-32 19 -28 8 -29 9 -6 6 16 -2 25 1 22 6 -4 6 -22 7 -43 3 -43 -8 -273 -7
-307 1 -17 4 -26 1 -30 -10z m546 -110 c0 -2 -13 -6 -29 -8 -17 -2 -28 -1 -25
4 5 8 54 12 54 4z m-143 -502 c-3 -3 -12 -4 -19 -1 -8 3 -5 6 6 6 11 1 17 -2
13 -5z"/>
<path d="M4976 1911 c-4 -5 2 -14 11 -20 17 -10 17 -10 -2 -11 -15 0 -17 -2
-6 -9 7 -5 11 -13 7 -19 -3 -6 -2 -13 4 -17 6 -4 8 -79 5 -203 -3 -128 -1
-188 5 -172 7 21 9 17 7 -22 0 -26 2 -50 6 -54 4 -4 7 -29 7 -56 0 -28 4 -47
9 -43 5 3 16 -4 25 -16 13 -19 21 -21 68 -15 104 13 125 18 103 26 -17 6 -15
8 12 14 37 8 54 26 26 27 -16 0 -16 1 2 9 14 6 16 9 5 11 -52 7 -72 9 -137 15
l-73 7 0 37 c0 59 11 99 29 104 9 2 43 8 76 11 45 6 55 10 40 16 -19 7 -19 8
3 8 12 1 22 5 22 10 0 5 10 11 22 14 17 5 19 9 10 20 -7 8 -9 17 -5 20 3 4 -3
7 -15 7 -11 0 -23 -4 -27 -9 -3 -6 -21 -4 -45 4 -22 8 -48 11 -57 8 -15 -6
-16 3 -10 86 3 51 8 95 10 97 2 2 41 10 86 18 46 8 86 18 90 22 3 3 -10 4 -29
0 l-35 -6 40 19 c22 11 51 20 65 22 21 1 19 3 -10 9 -34 7 -34 7 -6 9 16 0 27
3 24 6 -3 3 -77 8 -164 10 -87 3 -166 7 -175 10 -10 3 -20 1 -23 -4z"/>
<path d="M5450 1909 c0 -6 -9 -9 -20 -6 -15 4 -24 -2 -37 -26 -9 -18 -20 -35
-25 -38 -5 -3 -12 -96 -15 -205 -3 -142 -1 -195 6 -184 8 11 10 4 10 -30 -1
-41 -2 -42 -9 -15 l-8 30 0 -30 c0 -16 7 -57 16 -90 17 -60 17 -60 57 -63 36
-3 151 10 215 25 23 6 23 7 5 15 -15 6 -12 7 13 5 23 -3 31 0 28 9 -7 17 42
28 61 13 22 -19 69 -21 83 -4 7 8 19 15 27 15 7 0 27 29 42 64 16 35 33 66 38
69 4 2 41 8 81 11 71 7 72 7 72 -16 0 -18 2 -20 9 -9 7 11 11 4 16 -25 4 -21
11 -52 16 -68 5 -16 9 -44 9 -62 0 -24 5 -34 15 -34 13 0 15 18 15 113 -1 147
0 149 21 144 11 -3 16 0 13 8 -4 8 7 16 28 20 29 7 30 9 13 16 l-20 8 20 1
c17 2 16 3 -5 9 -14 5 -31 3 -38 -2 -27 -21 -34 11 -34 168 0 134 -2 155 -15
151 -8 -3 -23 -6 -34 -6 -12 0 -24 -11 -32 -27 -6 -16 -24 -41 -39 -58 -16
-16 -36 -46 -46 -65 -9 -19 -37 -63 -61 -97 -33 -47 -50 -63 -67 -63 -13 0
-24 -4 -24 -10 0 -5 6 -10 13 -10 7 0 8 -3 2 -8 -5 -4 -11 -15 -13 -24 -4 -22
-67 -134 -87 -154 -8 -9 -15 -20 -15 -25 0 -5 -15 -8 -32 -8 l-33 1 30 8 30 8
-30 2 c-16 1 -34 1 -40 0 -12 -3 -24 -3 -146 0 l-97 1 -5 33 c-3 18 1 73 9
122 8 49 19 134 23 189 5 56 14 120 20 143 10 35 9 45 -3 57 -17 18 -26 19
-26 4z m607 -203 c-3 -8 -2 -16 2 -18 4 -2 11 -29 15 -60 l6 -58 -33 0 c-45 0
-49 6 -26 46 21 39 24 48 9 39 -14 -9 -12 1 5 35 16 31 32 42 22 16z"/>
<path d="M6929 1910 c-1 -5 -2 -16 -3 -22 -1 -7 3 -16 9 -20 6 -5 9 -85 8
-225 -1 -135 2 -207 7 -188 8 26 9 24 7 -17 -1 -27 1 -48 5 -48 5 0 8 -25 8
-56 0 -33 4 -53 10 -49 5 3 15 -3 22 -15 15 -23 22 -24 125 -8 58 9 72 13 53
18 -24 6 -24 7 7 14 34 8 54 25 31 27 -7 0 -4 4 7 9 l20 9 -20 1 c-11 1 -33 3
-50 6 -16 2 -59 7 -95 11 -63 8 -65 9 -67 38 -4 55 8 104 25 109 9 2 44 8 77
11 45 6 55 10 40 16 -19 7 -19 8 3 8 12 1 22 6 22 11 0 6 7 10 15 10 8 0 15 7
15 15 0 8 -6 15 -12 15 -9 0 -8 4 2 10 18 11 3 12 -25 1 -12 -5 -36 -3 -58 5
-20 7 -44 11 -52 8 -12 -5 -15 4 -15 44 0 27 3 70 6 95 7 50 -2 45 114 63 35
5 40 8 25 14 -17 6 -15 8 12 14 18 4 35 12 38 17 4 5 21 10 38 10 18 1 24 3
14 6 -9 2 -15 9 -12 14 4 5 -2 9 -12 9 -140 4 -303 12 -320 15 -13 3 -24 1
-24 -5z m338 -26 c-3 -3 -12 -4 -19 -1 -8 3 -5 6 6 6 11 1 17 -2 13 -5z"/>
<path d="M12080 1894 c0 -13 5 -24 10 -24 6 0 10 -9 10 -19 0 -11 9 -23 20
-26 19 -6 20 -13 15 -213 -2 -119 -1 -192 4 -172 8 34 8 33 10 -17 0 -28 6
-55 11 -58 6 -3 10 -27 11 -53 0 -26 3 -40 6 -32 3 8 10 18 16 21 5 4 11 52
12 107 2 56 6 105 9 110 3 5 34 15 68 22 46 9 58 14 44 20 -17 6 -16 8 13 18
27 9 31 14 22 29 -5 10 -22 18 -40 19 -77 4 -81 8 -81 80 0 96 4 100 107 109
56 5 81 10 68 15 -15 6 -6 10 39 20 86 20 86 21 81 -224 -3 -133 -1 -191 5
-171 8 25 9 21 5 -22 -3 -34 0 -53 7 -53 7 0 9 -18 6 -51 -4 -39 -2 -49 8 -45
7 3 20 -4 28 -16 13 -18 21 -20 68 -14 104 13 125 18 103 26 -17 6 -15 8 12
14 33 8 55 26 31 26 -9 0 -9 3 2 10 13 9 13 10 0 11 -8 1 -26 3 -40 5 -14 1
-56 6 -95 11 -79 9 -83 15 -70 99 7 48 8 49 100 59 45 6 55 10 40 16 -19 7
-19 8 3 8 12 1 22 5 22 10 0 5 10 12 23 15 22 6 22 7 3 21 -13 10 -15 15 -6
15 7 0 11 2 8 5 -3 3 -16 1 -29 -4 -17 -6 -37 -5 -63 4 -21 8 -45 11 -54 8
-13 -5 -14 6 -10 86 3 50 8 94 11 97 3 3 38 10 78 16 51 8 68 13 54 18 -18 7
-16 9 10 15 17 4 35 11 40 15 6 4 22 10 38 12 24 5 27 3 21 -16 -4 -11 -11
-24 -17 -28 -11 -7 -26 -231 -25 -368 1 -69 2 -78 9 -45 7 39 7 38 6 -13 -1
-28 1 -52 6 -52 4 0 7 -23 7 -51 0 -28 4 -48 9 -45 5 4 11 1 13 -6 2 -6 10 21
17 60 7 39 10 76 6 82 -4 6 -4 29 0 51 l7 41 52 -58 c90 -102 108 -120 102
-101 -4 13 9 6 42 -21 35 -29 52 -38 63 -31 12 7 7 12 -11 11 -3 0 -6 11 -6
24 -1 14 -9 31 -17 37 -8 7 -31 41 -53 77 -21 36 -42 67 -46 68 -5 2 -13 12
-18 22 -9 16 -2 22 45 46 101 51 148 127 125 199 -24 72 -214 179 -257 144
-18 -15 -86 -22 -77 -8 6 10 10 10 -163 12 -68 1 -123 5 -123 8 0 9 -64 7 -75
-2 -10 -7 -91 -6 -342 4 -92 4 -93 4 -93 -19z m777 -10 c-3 -3 -12 -4 -19 -1
-8 3 -5 6 6 6 11 1 17 -2 13 -5z m164 -95 c5 -11 16 -19 24 -19 20 0 75 -49
75 -68 0 -9 -17 -34 -37 -57 -21 -22 -31 -34 -23 -27 20 17 35 15 19 -4 -7 -8
-21 -13 -32 -10 -10 2 -17 2 -14 -1 3 -3 0 -11 -6 -18 -10 -10 -14 -9 -24 5
-8 11 -20 16 -33 13 -17 -5 -19 -1 -15 23 2 16 7 62 10 103 3 40 8 77 11 82 7
12 33 -1 45 -22z"/>
<path d="M4365 1889 c-127 -80 -196 -231 -193 -419 0 -47 3 -74 5 -61 4 21 8
16 24 -30 11 -30 21 -60 22 -67 4 -17 18 -29 47 -37 l25 -8 -25 20 c-22 19
-18 18 53 -5 61 -20 82 -23 99 -14 l23 11 -25 0 c-20 1 -22 3 -10 11 11 7 5
10 -23 10 -21 0 -36 4 -33 9 4 5 -4 7 -16 3 -16 -4 -19 -2 -13 8 5 8 4 11 -2
7 -15 -9 -54 22 -67 55 -29 69 41 301 114 378 19 20 41 35 49 32 8 -3 11 0 7
7 -4 6 -3 11 3 11 6 0 15 -9 21 -21 15 -26 57 -23 52 5 -2 10 2 22 9 27 15 9
-41 69 -65 69 -9 0 -16 5 -16 10 0 16 -32 10 -65 -11z m120 -89 c3 -6 -1 -7
-9 -4 -18 7 -21 14 -7 14 6 0 13 -4 16 -10z"/>
<path d="M7460 1891 c-125 -67 -202 -229 -199 -420 1 -47 4 -75 6 -62 4 21 8
16 24 -30 11 -30 21 -58 22 -64 5 -21 19 -35 34 -35 11 0 13 3 5 13 -7 8 18 3
63 -12 59 -19 80 -22 97 -13 l23 11 -25 0 c-20 1 -22 3 -10 11 11 7 5 10 -23
10 -21 0 -36 4 -33 9 4 5 -4 7 -16 3 -16 -4 -19 -2 -13 8 5 8 4 11 -3 6 -6 -3
-24 8 -41 25 -25 24 -31 39 -31 73 0 149 100 366 170 366 6 0 8 5 5 10 -3 6
-2 10 4 10 6 0 15 -9 21 -21 15 -27 56 -23 53 6 -1 11 3 23 9 26 14 9 -44 69
-66 69 -9 0 -16 5 -16 10 0 15 -20 12 -60 -9z"/>
<path d="M8564 1902 c3 -5 -5 -18 -17 -29 -51 -46 -60 -66 -67 -147 -13 -136
-19 -324 -10 -291 8 26 9 24 8 -20 0 -27 1 -79 2 -115 2 -56 4 -60 10 -30 l7
35 3 -30 2 -30 10 35 c5 19 11 55 14 80 4 40 15 93 44 225 5 22 12 70 15 107
3 37 9 78 14 90 9 22 9 22 17 3 4 -11 20 -32 34 -47 69 -68 85 -162 47 -259
-15 -35 -20 -55 -12 -45 11 14 15 16 15 5 0 -8 -12 -28 -27 -44 -16 -16 -28
-34 -28 -40 0 -5 -24 -26 -53 -45 -40 -26 -49 -36 -37 -42 22 -13 130 47 155
85 11 18 31 47 45 65 35 49 65 135 65 190 0 95 -109 260 -193 291 -34 13 -70
14 -63 3z m86 -576 c0 -2 -8 -10 -17 -17 -16 -13 -17 -12 -4 4 13 16 21 21 21
13z"/>
<path d="M9354 1895 c-4 -10 -14 -15 -25 -12 -13 4 -22 -4 -31 -24 -7 -16 -16
-29 -20 -29 -10 0 -17 -53 -20 -150 -3 -82 -4 -85 -30 -94 -15 -5 -30 -7 -33
-5 -4 5 -5 86 -4 293 0 26 -5 29 -39 21 -21 -4 -39 -21 -61 -53 -17 -26 -41
-62 -54 -80 -12 -18 -44 -67 -71 -108 -42 -66 -52 -75 -75 -72 -21 2 -27 -2
-29 -19 -2 -13 1 -23 7 -23 6 0 -5 -33 -26 -72 -20 -40 -37 -75 -38 -78 0 -3
-10 -15 -22 -27 -13 -13 -23 -27 -23 -32 0 -26 72 -38 90 -16 7 8 19 15 26 15
8 0 28 30 45 66 17 36 36 67 43 69 6 2 41 6 79 9 l67 7 1 -28 c1 -22 3 -24 7
-8 6 24 41 -102 41 -152 1 -23 6 -33 16 -33 13 0 15 18 14 116 -2 85 1 118 11
124 10 6 9 9 -1 14 -8 3 -4 4 9 2 18 -3 22 -1 18 11 -4 9 -1 13 6 11 8 -3 15
-33 19 -79 3 -44 7 -60 9 -39 2 28 5 22 12 -30 5 -36 8 -78 8 -93 0 -15 6 -34
14 -42 12 -12 15 -4 24 57 6 40 9 76 6 80 -3 5 -2 28 1 50 l7 42 20 -24 c48
-60 120 -132 125 -126 3 3 28 -13 54 -35 27 -23 49 -36 49 -29 0 6 5 8 11 4
12 -7 -15 39 -41 71 -9 11 -29 43 -45 70 -15 28 -39 63 -52 79 l-25 29 56 32
c78 44 113 78 127 123 22 75 -23 139 -140 197 -69 35 -109 42 -117 20z m67
-106 c5 -11 16 -19 24 -19 21 0 75 -50 75 -70 0 -10 -21 -37 -47 -61 -27 -23
-37 -36 -25 -30 13 7 26 11 28 8 3 -2 -9 -10 -26 -17 -16 -7 -30 -17 -30 -23
0 -6 -7 -2 -15 10 -10 14 -22 19 -35 16 -17 -5 -19 -1 -15 23 2 16 7 62 10
103 3 40 8 77 11 82 7 12 33 -1 45 -22z m-344 -83 c-3 -8 -2 -16 3 -18 4 -2
10 -28 11 -58 l4 -55 -30 0 c-34 0 -36 9 -11 70 14 34 14 37 1 21 -19 -25 -19
-13 0 24 16 31 32 42 22 16z"/>
<path d="M9750 1899 c0 -6 -8 -8 -19 -4 -14 4 -21 -2 -32 -27 -7 -18 -17 -36
-23 -40 -15 -10 -27 -340 -12 -357 6 -8 15 -54 21 -104 5 -50 15 -92 21 -94
13 -4 24 71 24 164 0 34 6 92 14 130 8 37 17 116 21 176 4 59 11 110 16 113
15 9 10 41 -7 48 -21 8 -24 8 -24 -5z m-43 -611 c-3 -8 -6 -5 -6 6 -1 11 2 17
5 13 3 -3 4 -12 1 -19z"/>
<path d="M14640 1899 c0 -7 -10 -22 -22 -35 -58 -59 -56 -54 -68 -208 -6 -81
-9 -180 -6 -220 3 -51 2 -60 -3 -31 l-8 40 -2 -43 c-1 -30 3 -44 15 -49 12 -4
14 -16 8 -59 -6 -48 -5 -54 11 -48 10 4 15 14 12 25 -3 11 -2 17 2 14 5 -2 13
19 19 48 24 117 55 294 57 327 5 76 17 141 27 138 5 -2 10 -8 10 -13 0 -6 16
-27 35 -49 72 -80 84 -180 34 -282 -29 -57 -29 -58 -5 -29 l26 30 -16 -32 c-9
-17 -24 -38 -35 -45 -18 -13 -21 -18 -21 -37 0 -4 -20 -19 -45 -32 -51 -27
-54 -44 -8 -44 17 0 29 3 27 6 -2 4 12 14 31 23 38 18 105 99 144 175 18 33
26 67 29 122 4 67 1 82 -23 130 -38 75 -77 122 -132 158 -47 31 -93 41 -93 20z"/>
<path d="M10152 1890 c-12 -5 -25 -18 -29 -27 -4 -10 -19 -31 -34 -47 -15 -16
-37 -50 -50 -75 -50 -101 -100 -161 -133 -161 -29 0 -37 -20 -8 -21 14 0 14
-2 -3 -9 -11 -5 -14 -9 -8 -9 16 -1 -64 -159 -89 -179 -28 -21 -21 -39 18 -52
30 -10 38 -9 53 4 10 9 22 16 27 16 6 0 23 27 39 60 16 34 34 65 40 70 5 4 42
10 80 12 l70 3 6 -35 6 -35 3 30 c2 26 4 24 11 -15 19 -110 29 -153 34 -158
15 -15 20 20 18 124 -1 83 1 114 10 114 7 0 6 4 -3 11 -12 8 -9 10 12 6 18 -3
25 0 21 9 -3 7 8 15 29 19 29 7 30 9 13 16 l-20 8 20 1 c17 2 16 3 -5 9 -14 4
-30 4 -36 -1 -6 -4 -18 -6 -27 -3 -12 5 -14 31 -12 166 3 173 3 171 -53 149z
m-54 -182 c1 -7 5 -41 8 -75 l6 -63 -29 0 c-42 0 -45 7 -23 51 24 45 26 61 5
33 -21 -28 -18 -4 5 34 22 35 26 38 28 20z"/>
<path d="M4645 1880 c-4 -6 -14 -10 -24 -10 -10 0 -24 -11 -31 -25 -7 -14 -17
-25 -21 -25 -13 0 -18 -43 -24 -210 -4 -115 -3 -160 4 -150 6 8 11 10 11 4 0
-5 -5 -15 -10 -20 -12 -12 6 -74 21 -74 5 0 9 -8 9 -19 0 -10 14 -32 30 -50
28 -28 35 -31 94 -31 59 0 67 3 96 31 57 57 91 147 115 304 9 55 22 129 31
164 13 53 13 65 2 72 -18 12 -28 11 -28 -1 0 -5 -9 -10 -20 -10 -12 0 -26 -12
-36 -32 -9 -18 -20 -35 -24 -38 -5 -3 -18 -75 -30 -160 -29 -209 -56 -267
-119 -258 -17 2 -28 1 -25 -4 3 -4 22 -9 42 -10 l37 -1 -33 -4 c-22 -3 -40 1
-51 11 -10 9 -20 14 -22 11 -13 -12 -18 161 -7 226 5 30 11 75 14 101 2 25 9
68 15 95 21 96 22 110 5 116 -8 3 -18 2 -21 -3z"/>
<path d="M7721 1875 c-37 -20 -68 -59 -74 -91 -6 -29 -11 -242 -8 -341 0 -31
7 -58 16 -67 8 -8 15 -21 15 -29 0 -8 14 -28 30 -46 28 -28 36 -31 93 -31 41
0 70 5 85 16 51 35 106 162 122 278 6 39 19 113 31 164 11 51 18 99 15 107 -6
17 -36 21 -36 5 0 -5 -9 -10 -20 -10 -13 0 -25 -10 -32 -27 -7 -16 -18 -35
-24 -43 -7 -9 -18 -58 -24 -110 -13 -111 -38 -237 -51 -262 -16 -30 -40 -48
-67 -49 -24 -1 -23 -3 8 -9 l35 -8 -40 1 c-25 1 -39 6 -38 14 2 6 -5 10 -15 8
-12 -2 -18 5 -21 29 -12 82 0 217 36 403 15 77 13 114 -4 112 -4 -1 -19 -7
-32 -14z"/>
<path d="M15115 1854 c-132 -69 -192 -169 -210 -351 -6 -63 -5 -73 9 -73 9 0
16 -8 16 -20 0 -11 7 -36 15 -56 10 -25 11 -33 2 -29 -7 4 6 -10 28 -29 25
-23 51 -36 70 -37 29 -1 30 -1 5 -9 -23 -7 -24 -8 -3 -9 12 -1 45 4 72 10 89
19 159 118 196 274 17 74 8 160 -21 218 -8 15 -12 36 -9 46 3 12 0 21 -10 25
-8 3 -15 12 -15 20 0 9 -18 18 -50 25 -62 13 -58 14 -95 -5z m65 -108 c0 -8
10 -31 21 -51 30 -50 29 -166 -1 -255 -12 -36 -26 -69 -31 -75 -5 -5 -9 -13
-9 -18 0 -5 10 1 21 14 l21 24 -15 -25 c-8 -14 -22 -25 -31 -25 -9 0 -20 -6
-25 -14 -6 -9 -11 -10 -15 -2 -4 6 -15 11 -24 11 -15 0 -15 -2 -2 -10 30 -19
-4 -9 -39 12 -74 44 -84 78 -56 197 25 104 85 196 145 220 35 14 40 13 40 -3z"/>
<path d="M6719 1856 c-2 -2 -20 -6 -40 -9 -47 -6 -70 -19 -109 -63 -75 -85
-72 -152 9 -225 29 -26 70 -54 91 -63 22 -9 58 -23 80 -33 44 -18 61 -52 39
-79 -17 -21 -63 -44 -91 -45 -22 -1 -22 -1 2 -8 18 -5 5 -9 -49 -14 -54 -4
-83 -2 -109 8 -19 8 -36 15 -37 15 -9 0 4 -35 13 -38 7 -2 10 -7 7 -12 -3 -4
5 -6 17 -2 11 3 19 1 16 -4 -7 -11 20 -14 125 -15 102 -1 156 24 193 87 32 54
29 96 -11 148 -28 37 -109 81 -127 70 -7 -5 -8 -2 -3 6 6 10 4 12 -8 7 -10 -3
-17 -3 -17 2 0 4 -20 21 -45 37 -58 36 -61 70 -11 120 26 26 42 34 71 34 28 0
36 3 32 14 -5 12 -1 13 24 4 16 -5 32 -14 35 -19 10 -16 22 -9 26 15 4 18 1
23 -10 18 -11 -4 -13 -1 -7 9 4 8 5 11 0 7 -4 -4 -19 -1 -34 6 -34 17 -66 27
-72 22z m10 -60 c-2 -2 -17 -6 -34 -10 -22 -5 -26 -4 -15 4 14 9 59 15 49 6z
m-132 -502 c-3 -3 -12 -4 -19 -1 -8 3 -5 6 6 6 11 1 17 -2 13 -5z"/>
<path d="M10759 1856 c-2 -2 -21 -6 -42 -9 -41 -5 -68 -21 -109 -61 -69 -70
-73 -149 -10 -208 20 -19 40 -34 43 -34 4 1 15 -9 25 -21 11 -12 48 -31 82
-44 71 -25 100 -55 83 -87 -11 -21 -67 -51 -98 -53 -13 -1 -11 -3 7 -8 18 -5
5 -9 -49 -14 -51 -4 -83 -2 -105 7 -25 10 -34 11 -43 1 -9 -10 -5 -16 18 -25
16 -7 29 -15 29 -19 0 -9 29 -12 126 -12 115 -1 175 31 207 111 19 45 13 77
-22 120 -31 39 -99 82 -118 75 -7 -2 -13 0 -13 6 0 6 -4 8 -9 5 -5 -4 -11 -2
-13 2 -1 4 -24 23 -50 41 -27 17 -48 36 -48 41 0 20 21 61 42 82 13 13 23 28
23 33 0 6 14 11 30 12 29 2 29 2 5 -7 -24 -8 -24 -8 8 -9 22 -1 32 4 32 14 0
12 5 12 38 1 37 -13 38 -13 38 10 0 12 -3 21 -8 18 -4 -3 -25 4 -47 16 -43 21
-45 22 -52 16z m86 -46 c3 -6 -1 -7 -9 -4 -18 7 -21 14 -7 14 6 0 13 -4 16
-10z m-265 -500 c8 -5 11 -10 5 -10 -5 0 -17 5 -25 10 -8 5 -10 10 -5 10 6 0
17 -5 25 -10z"/>
<path d="M12448 1833 c6 -2 18 -2 25 0 6 3 1 5 -13 5 -14 0 -19 -2 -12 -5z"/>
<path d="M8341 1404 c0 -11 3 -14 6 -6 3 7 2 16 -1 19 -3 4 -6 -2 -5 -13z"/>
<path d="M14911 1394 c0 -11 3 -14 6 -6 3 7 2 16 -1 19 -3 4 -6 -2 -5 -13z"/>
<path d="M14920 1361 c0 -6 4 -13 10 -16 6 -3 7 1 4 9 -7 18 -14 21 -14 7z"/>
<path d="M14595 1270 c-3 -5 -1 -10 4 -10 6 0 11 5 11 10 0 6 -2 10 -4 10 -3
0 -8 -4 -11 -10z"/>
<path d="M14590 1224 c0 -8 5 -12 10 -9 6 4 8 11 5 16 -9 14 -15 11 -15 -7z"/>
</g>
</svg>
